<svg width="181" height="15" viewBox="0 0 181 15" fill="none" xmlns="http://www.w3.org/2000/svg">
<path d="M0.650391 10.2535L3.36908 9.99505C3.53271 10.8872 3.8631 11.5424 4.36027 11.9608C4.86373 12.3791 5.54026 12.5883 6.38985 12.5883C7.28979 12.5883 7.96631 12.4037 8.41943 12.0346C8.87884 11.6593 9.10854 11.2225 9.10854 10.7241C9.10854 10.4042 9.01099 10.1335 8.8159 9.91199C8.62711 9.68435 8.29356 9.48746 7.81527 9.32135C7.48802 9.2106 6.74227 9.01372 5.57802 8.73071C4.08022 8.36771 3.02925 7.92166 2.42509 7.39254C1.5755 6.64809 1.15071 5.7406 1.15071 4.67006C1.15071 3.98098 1.34894 3.33805 1.74542 2.74126C2.14819 2.13831 2.72402 1.67995 3.47292 1.36617C4.22811 1.0524 5.13749 0.895508 6.20105 0.895508C7.93799 0.895508 9.24385 1.26773 10.1186 2.01219C10.9997 2.75664 11.4622 3.75026 11.5063 4.99307L8.71206 5.11304C8.59249 4.41781 8.33447 3.91946 7.93799 3.61799C7.54781 3.31036 6.95939 3.15655 6.17273 3.15655C5.3609 3.15655 4.72528 3.31959 4.26587 3.64567C3.97009 3.85486 3.8222 4.1348 3.8222 4.48549C3.8222 4.80542 3.96065 5.0792 4.23755 5.30685C4.58998 5.59601 5.44586 5.89749 6.8052 6.21126C8.16455 6.52504 9.16833 6.85112 9.81653 7.18951C10.471 7.52174 10.9808 7.9801 11.3458 8.56459C11.7171 9.14293 11.9028 9.85969 11.9028 10.7149C11.9028 11.4901 11.6825 12.2161 11.242 12.8929C10.8014 13.5696 10.1784 14.0741 9.37286 14.4064C8.56732 14.7325 7.56354 14.8955 6.36153 14.8955C4.612 14.8955 3.26839 14.5017 2.33069 13.7142C1.393 12.9206 0.832895 11.767 0.650391 10.2535Z" fill="#17217A"/>
<path d="M20.0399 11.5362L22.6831 11.97C22.3433 12.9175 21.8052 13.6404 21.0689 14.1388C20.3389 14.6309 19.4232 14.877 18.3219 14.877C16.5786 14.877 15.2885 14.3202 14.4515 13.2066C13.7907 12.3145 13.4603 11.1886 13.4603 9.82893C13.4603 8.20467 13.8946 6.93418 14.763 6.01746C15.6315 5.09458 16.7297 4.63315 18.0576 4.63315C19.5491 4.63315 20.7259 5.11612 21.5881 6.08206C22.4503 7.04185 22.8625 8.51537 22.8247 10.5026H16.179C16.1979 11.2717 16.4119 11.8716 16.8209 12.3022C17.23 12.7268 17.7398 12.939 18.3502 12.939C18.7656 12.939 19.1148 12.8283 19.398 12.6068C19.6812 12.3853 19.8952 12.0284 20.0399 11.5362ZM20.191 8.91528C20.1721 8.16468 19.9739 7.59557 19.5963 7.20797C19.2187 6.81421 18.7593 6.61733 18.218 6.61733C17.6391 6.61733 17.1608 6.82344 16.7832 7.23565C16.4056 7.64787 16.2199 8.20775 16.2262 8.91528H20.191Z" fill="#17217A"/>
<path d="M34.1148 14.6556H31.4622V9.65358C31.4622 8.59535 31.4056 7.91243 31.2923 7.6048C31.179 7.29103 30.9934 7.048 30.7353 6.87573C30.4836 6.70346 30.1784 6.61733 29.8197 6.61733C29.3603 6.61733 28.9481 6.74038 28.5831 6.98648C28.218 7.23258 27.9663 7.55866 27.8279 7.96472C27.6957 8.37079 27.6296 9.12139 27.6296 10.2165V14.6556H24.977V4.85464H27.4408V6.29432C28.3156 5.18687 29.4169 4.63315 30.7448 4.63315C31.3301 4.63315 31.865 4.73774 32.3496 4.94692C32.8342 5.14996 33.1992 5.41144 33.4446 5.73137C33.6963 6.0513 33.8694 6.41429 33.9638 6.82036C34.0645 7.22642 34.1148 7.80783 34.1148 8.56459V14.6556Z" fill="#17217A"/>
<path d="M41.4119 4.85464V6.92188H39.5994V10.8718C39.5994 11.6716 39.6152 12.1392 39.6466 12.2745C39.6844 12.4037 39.763 12.5114 39.8826 12.5976C40.0085 12.6837 40.1595 12.7268 40.3357 12.7268C40.5812 12.7268 40.9367 12.6437 41.4024 12.4776L41.629 14.4894C41.0123 14.7478 40.3137 14.877 39.5333 14.877C39.055 14.877 38.624 14.8001 38.2401 14.6463C37.8562 14.4864 37.573 14.2833 37.3905 14.0372C37.2143 13.785 37.0915 13.4466 37.0223 13.0221C36.9657 12.7206 36.9374 12.1115 36.9374 11.1948V6.92188H35.7196V4.85464H36.9374V2.90737L39.5994 1.39386V4.85464H41.4119Z" fill="#17217A"/>
<path d="M43.2527 3.5257V1.12623H45.9053V3.5257H43.2527ZM43.2527 14.6556V4.85464H45.9053V14.6556H43.2527Z" fill="#17217A"/>
<path d="M57.7523 14.6556H55.0997V9.65358C55.0997 8.59535 55.0431 7.91243 54.9298 7.6048C54.8165 7.29103 54.6309 7.048 54.3729 6.87573C54.1211 6.70346 53.8159 6.61733 53.4572 6.61733C52.9978 6.61733 52.5856 6.74038 52.2206 6.98648C51.8556 7.23258 51.6038 7.55866 51.4654 7.96472C51.3332 8.37079 51.2671 9.12139 51.2671 10.2165V14.6556H48.6145V4.85464H51.0783V6.29432C51.9531 5.18687 53.0544 4.63315 54.3823 4.63315C54.9676 4.63315 55.5025 4.73774 55.9871 4.94692C56.4717 5.14996 56.8367 5.41144 57.0821 5.73137C57.3338 6.0513 57.5069 6.41429 57.6013 6.82036C57.702 7.22642 57.7523 7.80783 57.7523 8.56459V14.6556Z" fill="#17217A"/>
<path d="M66.2577 11.5362L68.9009 11.97C68.561 12.9175 68.023 13.6404 67.2866 14.1388C66.5566 14.6309 65.641 14.877 64.5396 14.877C62.7964 14.877 61.5063 14.3202 60.6693 13.2066C60.0085 12.3145 59.6781 11.1886 59.6781 9.82893C59.6781 8.20467 60.1123 6.93418 60.9808 6.01746C61.8493 5.09458 62.9474 4.63315 64.2753 4.63315C65.7668 4.63315 66.9437 5.11612 67.8058 6.08206C68.668 7.04185 69.0802 8.51537 69.0425 10.5026H62.3968C62.4157 11.2717 62.6296 11.8716 63.0387 12.3022C63.4478 12.7268 63.9575 12.939 64.568 12.939C64.9833 12.939 65.3326 12.8283 65.6158 12.6068C65.899 12.3853 66.1129 12.0284 66.2577 11.5362ZM66.4087 8.91528C66.3898 8.16468 66.1916 7.59557 65.814 7.20797C65.4364 6.81421 64.977 6.61733 64.4358 6.61733C63.8568 6.61733 63.3785 6.82344 63.0009 7.23565C62.6233 7.64787 62.4377 8.20775 62.444 8.91528H66.4087Z" fill="#17217A"/>
<path d="M71.2136 14.6556V1.12623H73.8662V14.6556H71.2136Z" fill="#17217A"/>
<path d="M82.0318 14.6556V1.12623H84.826V7.13414L90.471 1.12623H94.2281L89.0173 6.39584L94.5113 14.6556H90.8958L87.0916 8.30619L84.826 10.5672V14.6556H82.0318Z" fill="#17217A"/>
<path d="M95.3326 9.61667C95.3326 8.75532 95.5497 7.92166 95.9839 7.11568C96.4182 6.3097 97.0318 5.69445 97.8247 5.26993C98.624 4.84541 99.5145 4.63315 100.496 4.63315C102.013 4.63315 103.256 5.11612 104.225 6.08206C105.194 7.04185 105.679 8.25697 105.679 9.72741C105.679 11.2102 105.188 12.4407 104.206 13.4189C103.231 14.391 102 14.877 100.515 14.877C99.5963 14.877 98.7184 14.674 97.8814 14.268C97.0506 13.8619 96.4182 13.2682 95.9839 12.4868C95.5497 11.6993 95.3326 10.7426 95.3326 9.61667ZM98.0513 9.7551C98.0513 10.7272 98.2873 11.4716 98.7593 11.9885C99.2313 12.5053 99.8134 12.7637 100.506 12.7637C101.198 12.7637 101.777 12.5053 102.243 11.9885C102.715 11.4716 102.951 10.721 102.951 9.73664C102.951 8.77685 102.715 8.03855 102.243 7.52174C101.777 7.00493 101.198 6.74653 100.506 6.74653C99.8134 6.74653 99.2313 7.00493 98.7593 7.52174C98.2873 8.03855 98.0513 8.783 98.0513 9.7551Z" fill="#17217A"/>
<path d="M110.304 14.6556H107.652V4.85464H110.115V6.24818C110.537 5.58986 110.915 5.15611 111.248 4.94692C111.588 4.73774 111.972 4.63315 112.4 4.63315C113.004 4.63315 113.586 4.79619 114.146 5.12227L113.325 7.38331C112.878 7.1003 112.463 6.95879 112.079 6.95879C111.708 6.95879 111.393 7.06031 111.135 7.26334C110.877 7.46022 110.672 7.82014 110.521 8.3431C110.377 8.86606 110.304 9.96121 110.304 11.6285V14.6556Z" fill="#17217A"/>
<path d="M121.104 11.5362L123.747 11.97C123.407 12.9175 122.869 13.6404 122.132 14.1388C121.402 14.6309 120.487 14.877 119.385 14.877C117.642 14.877 116.352 14.3202 115.515 13.2066C114.854 12.3145 114.524 11.1886 114.524 9.82893C114.524 8.20467 114.958 6.93418 115.827 6.01746C116.695 5.09458 117.793 4.63315 119.121 4.63315C120.613 4.63315 121.789 5.11612 122.652 6.08206C123.514 7.04185 123.926 8.51537 123.888 10.5026H117.243C117.261 11.2717 117.475 11.8716 117.884 12.3022C118.294 12.7268 118.803 12.939 119.414 12.939C119.829 12.939 120.178 12.8283 120.462 12.6068C120.745 12.3853 120.959 12.0284 121.104 11.5362ZM121.255 8.91528C121.236 8.16468 121.037 7.59557 120.66 7.20797C120.282 6.81421 119.823 6.61733 119.282 6.61733C118.703 6.61733 118.224 6.82344 117.847 7.23565C117.469 7.64787 117.283 8.20775 117.29 8.91528H121.255Z" fill="#17217A"/>
<path d="M128.042 7.84475L125.635 7.42023C125.905 6.47274 126.371 5.77136 127.032 5.31607C127.693 4.86079 128.674 4.63315 129.977 4.63315C131.16 4.63315 132.041 4.77158 132.62 5.04844C133.199 5.31915 133.605 5.66677 133.838 6.09129C134.077 6.50966 134.197 7.2818 134.197 8.4077L134.168 11.4347C134.168 12.2961 134.209 12.9329 134.291 13.3451C134.379 13.7511 134.54 14.188 134.772 14.6556H132.148C132.079 14.4833 131.994 14.228 131.893 13.8896C131.849 13.7358 131.818 13.6342 131.799 13.585C131.346 14.0157 130.861 14.3387 130.345 14.554C129.829 14.7694 129.278 14.877 128.693 14.877C127.661 14.877 126.846 14.6033 126.248 14.0557C125.657 13.5081 125.361 12.816 125.361 11.9792C125.361 11.4255 125.496 10.9333 125.767 10.5026C126.037 10.0658 126.415 9.73357 126.9 9.50592C127.39 9.27213 128.095 9.0691 129.014 8.89683C130.254 8.66918 131.113 8.45692 131.591 8.26004V8.00164C131.591 7.50329 131.465 7.14952 131.214 6.94033C130.962 6.725 130.487 6.61733 129.788 6.61733C129.316 6.61733 128.948 6.70961 128.684 6.89419C128.419 7.07261 128.205 7.38946 128.042 7.84475ZM131.591 9.9489C131.251 10.0596 130.713 10.1919 129.977 10.3457C129.241 10.4996 128.759 10.6503 128.533 10.7979C128.187 11.0379 128.014 11.3424 128.014 11.7116C128.014 12.0746 128.152 12.3884 128.429 12.6529C128.706 12.9175 129.058 13.0498 129.486 13.0498C129.964 13.0498 130.421 12.8959 130.855 12.5883C131.176 12.3545 131.387 12.0684 131.487 11.73C131.557 11.5086 131.591 11.0871 131.591 10.4657V9.9489Z" fill="#17217A"/>
<path d="M142.258 14.6556V1.12623H145.053V7.13414L150.698 1.12623H154.455L149.244 6.39584L154.738 14.6556H151.122L147.318 8.30619L145.053 10.5672V14.6556H142.258Z" fill="#17217A"/>
<path d="M159.826 14.6556V8.96143L154.757 1.12623H158.032L161.289 6.4789L164.48 1.12623H167.699L162.611 8.97988V14.6556H159.826Z" fill="#17217A"/>
<path d="M177.941 9.68127L180.65 10.5211C180.235 11.9977 179.543 13.0959 178.574 13.8157C177.611 14.5294 176.387 14.8863 174.901 14.8863C173.064 14.8863 171.553 14.2741 170.37 13.0498C169.187 11.8193 168.596 10.1396 168.596 8.01087C168.596 5.75905 169.19 4.01175 170.38 2.76894C171.569 1.51999 173.133 0.895508 175.071 0.895508C176.764 0.895508 178.139 1.38463 179.197 2.36288C179.826 2.94121 180.298 3.7718 180.613 4.85464L177.847 5.50065C177.683 4.79927 177.34 4.24554 176.818 3.83948C176.302 3.43341 175.672 3.23038 174.93 3.23038C173.904 3.23038 173.07 3.5903 172.428 4.31014C171.793 5.02998 171.475 6.19588 171.475 7.80783C171.475 9.51823 171.789 10.7364 172.419 11.4624C173.048 12.1884 173.866 12.5514 174.873 12.5514C175.616 12.5514 176.255 12.3207 176.789 11.8593C177.324 11.3978 177.708 10.6718 177.941 9.68127Z" fill="#17217A"/>
</svg>
