<svg width="170" height="170" viewBox="0 0 170 170" fill="none" xmlns="http://www.w3.org/2000/svg">
<path d="M170 85C170 131.944 131.944 170 85 170C38.0558 170 0 131.944 0 85C0 38.0558 38.0558 0 85 0C131.944 0 170 38.0558 170 85Z" fill="#EEEEF7"/>
<path d="M36 73C36 70.2386 38.2386 68 41 68H129C131.761 68 134 70.2386 134 73V127C134 129.761 131.761 132 129 132H41C38.2386 132 36 129.761 36 127V73Z" fill="#5B7FFF"/>
<path fill-rule="evenodd" clip-rule="evenodd" d="M129 70H41C39.3431 70 38 71.3431 38 73V127C38 128.657 39.3431 130 41 130H129C130.657 130 132 128.657 132 127V73C132 71.3431 130.657 70 129 70ZM41 68C38.2386 68 36 70.2386 36 73V127C36 129.761 38.2386 132 41 132H129C131.761 132 134 129.761 134 127V73C134 70.2386 131.761 68 129 68H41Z" fill="#17217A"/>
<path d="M62.25 100C62.25 101.657 60.9069 103 59.25 103C57.5931 103 56.25 101.657 56.25 100C56.25 98.3431 57.5931 97 59.25 97C60.9069 97 62.25 98.3431 62.25 100Z" fill="#EEEEF7"/>
<path d="M72.75 100C72.75 101.657 71.4069 103 69.75 103C68.0931 103 66.75 101.657 66.75 100C66.75 98.3431 68.0931 97 69.75 97C71.4069 97 72.75 98.3431 72.75 100Z" fill="#EEEEF7"/>
<path d="M83.25 100C83.25 101.657 81.9069 103 80.25 103C78.5931 103 77.25 101.657 77.25 100C77.25 98.3431 78.5931 97 80.25 97C81.9069 97 83.25 98.3431 83.25 100Z" fill="#EEEEF7"/>
<path d="M93.75 100C93.75 101.657 92.4069 103 90.75 103C89.0931 103 87.75 101.657 87.75 100C87.75 98.3431 89.0931 97 90.75 97C92.4069 97 93.75 98.3431 93.75 100Z" fill="#EEEEF7"/>
<path d="M104.25 100C104.25 101.657 102.907 103 101.25 103C99.5931 103 98.25 101.657 98.25 100C98.25 98.3431 99.5931 97 101.25 97C102.907 97 104.25 98.3431 104.25 100Z" fill="#EEEEF7"/>
<path d="M114.75 100C114.75 101.657 113.407 103 111.75 103C110.093 103 108.75 101.657 108.75 100C108.75 98.3431 110.093 97 111.75 97C113.407 97 114.75 98.3431 114.75 100Z" fill="#EEEEF7"/>
<path fill-rule="evenodd" clip-rule="evenodd" d="M83.5 26C69.969 26 59 36.969 59 50.5V70H68V51.5C68 42.9396 74.9396 36 83.5 36C92.0604 36 99 42.9396 99 51.5V70H108V50.5C108 36.969 97.031 26 83.5 26Z" fill="white"/>
<path fill-rule="evenodd" clip-rule="evenodd" d="M83.5 28C71.0736 28 61 38.0736 61 50.5V68H66V51.5C66 41.835 73.835 34 83.5 34C93.165 34 101 41.835 101 51.5V68H106V50.5C106 38.0736 95.9264 28 83.5 28ZM99 70V51.5C99 42.9396 92.0604 36 83.5 36C74.9396 36 68 42.9396 68 51.5V70H59V50.5C59 36.969 69.969 26 83.5 26C97.031 26 108 36.969 108 50.5V70H99Z" fill="#17217A"/>
<path d="M144 123C144 134.046 135.046 143 124 143C112.954 143 104 134.046 104 123C104 111.954 112.954 103 124 103C135.046 103 144 111.954 144 123Z" fill="white"/>
<path fill-rule="evenodd" clip-rule="evenodd" d="M124 141C133.941 141 142 132.941 142 123C142 113.059 133.941 105 124 105C114.059 105 106 113.059 106 123C106 132.941 114.059 141 124 141ZM124 143C135.046 143 144 134.046 144 123C144 111.954 135.046 103 124 103C112.954 103 104 111.954 104 123C104 134.046 112.954 143 124 143Z" fill="#17217A"/>
<path d="M120.646 131.457L113.33 124.141C112.89 123.701 112.89 122.989 113.33 122.549L114.921 120.957C115.361 120.518 116.074 120.518 116.513 120.957L121.442 125.886L131.998 115.33C132.437 114.89 133.15 114.89 133.589 115.33L135.181 116.921C135.621 117.361 135.621 118.074 135.181 118.513L122.237 131.457C121.798 131.896 121.085 131.896 120.646 131.457Z" fill="#17217A"/>
</svg>
