<svg width="128" height="128" viewBox="0 0 128 128" fill="none" xmlns="http://www.w3.org/2000/svg">
<g clip-path="url(#clip0_40_940)">
<path d="M64 128C99.3462 128 128 99.3462 128 64C128 28.6538 99.3462 0 64 0C28.6538 0 0 28.6538 0 64C0 99.3462 28.6538 128 64 128Z" fill="#A7A7CE"/>
<path d="M128 64.0001C128 79.5601 122.45 93.8201 113.23 104.91L16.18 106.54C9.67997 99.2501 4.82997 90.4601 2.21997 80.7501C3.13997 79.7701 4.36997 78.8001 6.29997 77.8501C13.01 74.5501 14.78 78.14 21.5 74.84C28.21 71.54 26.44 67.9501 33.15 64.6501C39.87 61.3501 41.63 64.9401 48.34 61.6401C55.05 58.3401 53.29 54.7501 60 51.4501C66.71 48.1501 68.47 51.7401 75.18 48.4401C81.89 45.1401 80.13 41.5501 86.84 38.2501C93.55 34.9501 95.32 38.5401 102.03 35.2401C108.74 31.9401 106.97 28.3501 113.68 25.0501C113.96 24.9101 114.23 24.7901 114.5 24.6801C122.96 35.5301 128 49.1701 128 64.0001Z" fill="#F6F6F6"/>
<path d="M127.99 64.99C127.46 99.88 99.0201 128 64.0001 128C37.7701 128 15.2201 112.22 5.34009 89.64C14.3201 89.19 47.5001 86.6 74.3301 72.33C93.8301 61.96 114.88 62.85 127.99 64.99Z" fill="#EEEEF7"/>
<path d="M24.0711 61.569C24.9995 61.569 25.7521 60.8164 25.7521 59.888C25.7521 58.9596 24.9995 58.207 24.0711 58.207C23.1427 58.207 22.3901 58.9596 22.3901 59.888C22.3901 60.8164 23.1427 61.569 24.0711 61.569Z" fill="white"/>
<path d="M34.8509 58.207C35.7793 58.207 36.5319 57.4544 36.5319 56.526C36.5319 55.5976 35.7793 54.845 34.8509 54.845C33.9225 54.845 33.1699 55.5976 33.1699 56.526C33.1699 57.4544 33.9225 58.207 34.8509 58.207Z" fill="white"/>
<path d="M20.7101 85.342C21.6384 85.342 22.3911 84.5894 22.3911 83.661C22.3911 82.7326 21.6384 81.98 20.7101 81.98C19.7817 81.98 19.0291 82.7326 19.0291 83.661C19.0291 84.5894 19.7817 85.342 20.7101 85.342Z" fill="white"/>
<path d="M47.922 75.439C48.8504 75.439 49.603 74.6864 49.603 73.758C49.603 72.8296 48.8504 72.077 47.922 72.077C46.9936 72.077 46.241 72.8296 46.241 73.758C46.241 74.6864 46.9936 75.439 47.922 75.439Z" fill="white"/>
<path d="M30.0311 71.915C30.9595 71.915 31.7121 71.1624 31.7121 70.234C31.7121 69.3056 30.9595 68.553 30.0311 68.553C29.1027 68.553 28.3501 69.3056 28.3501 70.234C28.3501 71.1624 29.1027 71.915 30.0311 71.915Z" fill="white"/>
<path d="M13.589 70.234C14.0529 70.234 14.429 69.8579 14.429 69.394C14.429 68.93 14.0529 68.554 13.589 68.554C13.1251 68.554 12.749 68.93 12.749 69.394C12.749 69.8579 13.1251 70.234 13.589 70.234Z" fill="#EEEEF7"/>
<path d="M27.0951 78.83C27.559 78.83 27.9351 78.4539 27.9351 77.99C27.9351 77.5261 27.559 77.15 27.0951 77.15C26.6312 77.15 26.2551 77.5261 26.2551 77.99C26.2551 78.4539 26.6312 78.83 27.0951 78.83Z" fill="white"/>
<path d="M28.732 93.1519C29.6604 93.1519 30.413 92.3993 30.413 91.4709C30.413 90.5425 29.6604 89.7899 28.732 89.7899C27.8036 89.7899 27.051 90.5425 27.051 91.4709C27.051 92.3993 27.8036 93.1519 28.732 93.1519Z" fill="white"/>
<path d="M34.692 103.499C35.6204 103.499 36.373 102.746 36.373 101.818C36.373 100.89 35.6204 100.137 34.692 100.137C33.7636 100.137 33.011 100.89 33.011 101.818C33.011 102.746 33.7636 103.499 34.692 103.499Z" fill="white"/>
<path d="M31.756 110.414C32.2199 110.414 32.596 110.038 32.596 109.574C32.596 109.11 32.2199 108.734 31.756 108.734C31.2921 108.734 30.916 109.11 30.916 109.574C30.916 110.038 31.2921 110.414 31.756 110.414Z" fill="white"/>
<path d="M43.2121 62.4849C43.676 62.4849 44.0521 62.1089 44.0521 61.6449C44.0521 61.181 43.676 60.8049 43.2121 60.8049C42.7482 60.8049 42.3721 61.181 42.3721 61.6449C42.3721 62.1089 42.7482 62.4849 43.2121 62.4849Z" fill="#EEEEF7"/>
<path d="M94.441 32.925C95.3694 32.925 96.122 32.1724 96.122 31.244C96.122 30.3156 95.3694 29.563 94.441 29.563C93.5126 29.563 92.76 30.3156 92.76 31.244C92.76 32.1724 93.5126 32.925 94.441 32.925Z" fill="white"/>
<path d="M105.221 29.563C106.149 29.563 106.902 28.8104 106.902 27.882C106.902 26.9537 106.149 26.201 105.221 26.201C104.293 26.201 103.54 26.9537 103.54 27.882C103.54 28.8104 104.293 29.563 105.221 29.563Z" fill="white"/>
<path d="M91.0799 56.699C92.0083 56.699 92.7609 55.9464 92.7609 55.018C92.7609 54.0896 92.0083 53.337 91.0799 53.337C90.1515 53.337 89.3989 54.0896 89.3989 55.018C89.3989 55.9464 90.1515 56.699 91.0799 56.699Z" fill="white"/>
<path d="M118.292 46.795C119.22 46.795 119.973 46.0424 119.973 45.114C119.973 44.1856 119.22 43.433 118.292 43.433C117.363 43.433 116.611 44.1856 116.611 45.114C116.611 46.0424 117.363 46.795 118.292 46.795Z" fill="white"/>
<path d="M100.401 43.272C101.329 43.272 102.082 42.5194 102.082 41.591C102.082 40.6626 101.329 39.91 100.401 39.91C99.4726 39.91 98.72 40.6626 98.72 41.591C98.72 42.5194 99.4726 43.272 100.401 43.272Z" fill="white"/>
<path d="M83.9579 41.59C84.4218 41.59 84.7979 41.214 84.7979 40.75C84.7979 40.2861 84.4218 39.91 83.9579 39.91C83.494 39.91 83.1179 40.2861 83.1179 40.75C83.1179 41.214 83.494 41.59 83.9579 41.59Z" fill="#EEEEF7"/>
<path d="M97.465 50.1871C97.9289 50.1871 98.305 49.811 98.305 49.3471C98.305 48.8832 97.9289 48.5071 97.465 48.5071C97.0011 48.5071 96.625 48.8832 96.625 49.3471C96.625 49.811 97.0011 50.1871 97.465 50.1871Z" fill="white"/>
<path d="M113.582 33.841C114.046 33.841 114.422 33.4649 114.422 33.001C114.422 32.5371 114.046 32.161 113.582 32.161C113.118 32.161 112.742 32.5371 112.742 33.001C112.742 33.4649 113.118 33.841 113.582 33.841Z" fill="#EEEEF7"/>
<path d="M80.2479 15.168C81.1763 15.168 81.9289 14.4154 81.9289 13.487C81.9289 12.5586 81.1763 11.806 80.2479 11.806C79.3195 11.806 78.5669 12.5586 78.5669 13.487C78.5669 14.4154 79.3195 15.168 80.2479 15.168Z" fill="white"/>
<path d="M86.2088 25.5151C87.1372 25.5151 87.8898 24.7625 87.8898 23.8341C87.8898 22.9057 87.1372 22.1531 86.2088 22.1531C85.2804 22.1531 84.5278 22.9057 84.5278 23.8341C84.5278 24.7625 85.2804 25.5151 86.2088 25.5151Z" fill="white"/>
<path d="M99.39 16.0841C99.854 16.0841 100.23 15.708 100.23 15.2441C100.23 14.7801 99.854 14.4041 99.39 14.4041C98.9261 14.4041 98.55 14.7801 98.55 15.2441C98.55 15.708 98.9261 16.0841 99.39 16.0841Z" fill="#EEEEF7"/>
<path d="M63.4749 83.5461C64.4033 83.5461 65.1559 82.7935 65.1559 81.8651C65.1559 80.9367 64.4033 80.1841 63.4749 80.1841C62.5466 80.1841 61.7939 80.9367 61.7939 81.8651C61.7939 82.7935 62.5466 83.5461 63.4749 83.5461Z" fill="white"/>
<path d="M76.6559 74.116C77.1198 74.116 77.4959 73.74 77.4959 73.276C77.4959 72.8121 77.1198 72.436 76.6559 72.436C76.192 72.436 75.8159 72.8121 75.8159 73.276C75.8159 73.74 76.192 74.116 76.6559 74.116Z" fill="#EEEEF7"/>
<path d="M28.845 102.406C37.1078 102.406 43.806 101.722 43.806 100.878C43.806 100.034 37.1078 99.35 28.845 99.35C20.5823 99.35 13.884 100.034 13.884 100.878C13.884 101.722 20.5823 102.406 28.845 102.406Z" fill="#17217A"/>
<path d="M79.4561 41.418C79.4561 41.418 74.0601 42.125 73.6671 47.393C73.6671 47.393 72.5401 58.992 70.4761 60.056C68.4121 61.12 65.9251 57.185 65.9251 57.185C65.9251 57.185 63.8701 59.927 66.1751 62.518C69.3071 66.039 71.6571 66.29 72.3471 66.285C73.1061 66.148 74.0161 65.948 74.8241 65.361C76.1831 64.373 77.7821 62.335 78.7451 58.131L79.4561 41.418Z" fill="#A484B7"/>
<path d="M62.6911 59.5749L61.9491 58.4649C61.2101 57.3589 61.5101 55.8499 62.6161 55.1109C63.7221 54.3719 65.2311 54.6719 65.9701 55.7779L66.7121 56.8879C67.4511 57.9939 67.1511 59.5029 66.0451 60.2419C64.9391 60.9799 63.4301 60.6799 62.6911 59.5749Z" fill="#7E539B"/>
<path d="M85.2361 39.0359V41.4469L86.3741 41.4179L87.4191 38.0599L85.2361 39.0359Z" fill="#9B7BAD"/>
<path d="M82.5152 32.032C82.5152 32.032 82.2032 38.711 85.2362 39.035H86.6042L86.3752 41.418L90.5292 41.446V32.031H82.5152V32.032Z" fill="white"/>
<path d="M91.6041 28.947C90.4141 26.708 88.5601 27.302 87.9651 27.302C87.3701 27.302 85.9011 28.317 84.3611 28.317C82.8211 28.317 82.5151 27.477 82.5151 27.477C79.6191 29.646 82.5151 32.032 82.5151 32.032L85.2171 32.088C85.5241 32.328 86.8151 33.277 88.3721 33.567C88.3721 33.567 89.4721 31.742 89.7261 33.567C89.8661 34.575 89.4381 35.183 89.0271 35.526C89.4451 36.378 90.0661 37.197 91.0141 37.725L91.1611 35.668C91.1611 35.668 92.7941 31.186 91.6041 28.947Z" fill="#1D1B1B"/>
<path d="M82.8842 36.109H87.4051L87.7742 33.12H88.7831L88.1542 38.06C87.8401 39.866 85.3302 39.57 84.1622 39.265C82.6812 38.879 82.8842 36.109 82.8842 36.109Z" fill="#1D1B1B"/>
<path d="M84.3611 28.317C84.3611 28.317 89.1871 29.617 89.0271 35.526L89.3091 42.456L93.2651 41.446C93.2651 41.446 95.7271 31.738 92.8901 29.134C90.0541 26.531 87.4061 26.354 84.3611 28.317Z" fill="#B99AC8"/>
<path d="M82.1551 32.701L87.4061 32.958C87.4061 32.958 86.6181 36.0111 85.1381 33.8661C85.1381 33.8661 84.6541 33.3511 84.3271 33.7401C84.0001 34.1291 83.0381 35.112 82.4781 34.159C81.9171 33.207 82.1551 32.701 82.1551 32.701Z" fill="#B99AC8"/>
<path d="M76.606 47.3189C76.418 45.1109 77.24 41.4189 79.456 41.4189H97.48C100.535 41.4189 102.94 44.0269 102.692 47.0719L96.828 70.9559L80.094 70.6929L76.606 47.3189Z" fill="#B99AC8"/>
<path d="M80.9051 79.33L80.0951 70.692L67.2801 72.516C65.9431 72.516 64.8491 73.61 64.8491 74.947V90.598C64.8491 91.935 65.9431 93.029 67.2801 93.029H71.0911C72.4281 93.029 73.5221 91.935 73.5221 90.598V79.33H80.9051Z" fill="#17217A"/>
<path d="M66.701 93.03V100.477C66.701 100.477 60.419 103.227 61.695 104.227H71.597V100.477V93.03H66.701Z" fill="#1D1B1B"/>
<path d="M94.2561 86.3521V101.852C94.2561 102.68 98.1561 103.352 102.966 103.352C107.776 103.352 111.676 102.68 111.676 101.852V86.3521H94.2561Z" fill="#17217A"/>
<path d="M111.676 86.3521C111.676 86.9821 109.456 87.5121 106.296 87.7321C105.276 87.8121 104.146 87.8521 102.966 87.8521C101.846 87.8521 100.776 87.8121 99.7961 87.7421C96.5561 87.5321 94.2561 86.9921 94.2561 86.3521C94.2561 85.6021 97.4561 84.9821 101.636 84.8721C102.066 84.8621 102.516 84.8521 102.966 84.8521C104.336 84.8521 105.626 84.9021 106.776 85.0021C109.676 85.2421 111.676 85.7621 111.676 86.3521Z" fill="#7E539B"/>
<path d="M96.009 78.661H80.676V81.566H96.009V78.661Z" fill="#A7A7CE"/>
<path d="M86.327 81.566H82.875V94.852H86.327V81.566Z" fill="#A7A7CE"/>
<path d="M93.764 81.566H90.312V94.852H93.764V81.566Z" fill="#A7A7CE"/>
<path d="M91.106 80.114H80.095V70.692H96.98V74.24C96.98 77.484 94.35 80.114 91.106 80.114Z" fill="#7E539B"/>
<path d="M83.9061 93.03H80.3031C78.9091 93.03 77.7681 91.889 77.7681 90.495V73.259C77.7681 71.865 78.9091 70.724 80.3031 70.724H83.9061C85.3001 70.724 86.4411 71.865 86.4411 73.259V90.495C86.4411 91.889 85.3011 93.03 83.9061 93.03Z" fill="#7E539B"/>
<path d="M79.596 93.03V100.477C79.596 100.477 73.314 103.227 74.59 104.227H84.492V100.477V93.03H79.596Z" fill="#1D1B1B"/>
<path d="M84.36 73.352C84.255 73.352 84.149 73.319 84.058 73.25L28.543 31.125C28.323 30.958 28.28 30.645 28.447 30.425C28.614 30.204 28.926 30.16 29.148 30.328L84.664 72.453C84.884 72.62 84.927 72.933 84.76 73.153C84.661 73.283 84.512 73.352 84.36 73.352Z" fill="#17217A"/>
<path d="M28.845 101.936C28.707 101.936 28.595 101.824 28.595 101.686V32.032C28.595 31.937 28.649 31.85 28.734 31.807C28.82 31.767 28.922 31.776 28.997 31.833L69.725 62.97C69.835 63.053 69.855 63.21 69.772 63.32C69.688 63.43 69.53 63.452 69.421 63.367L29.095 32.538V101.685C29.095 101.823 28.983 101.936 28.845 101.936Z" fill="#E3D9ED"/>
<path d="M69.573 64.4661C71.247 64.4661 72.604 63.109 72.604 61.4351C72.604 59.7611 71.247 58.4041 69.573 58.4041C67.899 58.4041 66.542 59.7611 66.542 61.4351C66.542 63.109 67.899 64.4661 69.573 64.4661Z" fill="#17217A"/>
<path d="M29.6551 34.15C29.3901 33.927 29.3551 33.528 29.5781 33.263L30.5001 32.166C30.7231 31.901 31.1221 31.866 31.3871 32.089C31.6521 32.312 31.6871 32.711 31.4641 32.976L30.5421 34.073C30.3191 34.339 29.9201 34.373 29.6551 34.15Z" fill="#17217A"/>
<path d="M39.336 41.703C39.071 41.48 39.036 41.081 39.259 40.816L40.181 39.719C40.404 39.454 40.803 39.419 41.068 39.642C41.333 39.865 41.368 40.264 41.145 40.529L40.223 41.626C40.001 41.891 39.602 41.925 39.336 41.703Z" fill="#17217A"/>
<path d="M49.0181 49.255C48.7531 49.032 48.7181 48.633 48.9411 48.368L49.8631 47.271C50.0861 47.006 50.4851 46.971 50.7501 47.194C51.0151 47.417 51.0501 47.816 50.8271 48.081L49.9051 49.178C49.6821 49.443 49.2831 49.478 49.0181 49.255Z" fill="#17217A"/>
<path d="M58.9881 56.463C58.7231 56.24 58.6881 55.841 58.9111 55.576L59.8331 54.479C60.0561 54.214 60.4551 54.179 60.7201 54.402C60.9851 54.625 61.0201 55.024 60.7971 55.289L59.8751 56.386C59.6531 56.651 59.2541 56.685 58.9881 56.463Z" fill="#17217A"/>
<path d="M64.2161 60.564C63.9511 60.341 63.9161 59.942 64.1391 59.677L65.0611 58.58C65.2841 58.315 65.6831 58.28 65.9481 58.503C66.2131 58.726 66.2481 59.125 66.0251 59.39L65.1031 60.487C64.8811 60.753 64.4821 60.787 64.2161 60.564Z" fill="#17217A"/>
<path d="M106.776 85.0019C106.766 85.7919 106.646 86.7219 106.296 87.7319C105.276 87.8119 104.146 87.8519 102.966 87.8519C101.846 87.8519 100.776 87.8119 99.7961 87.7419C100.076 87.1519 100.676 86.0119 101.636 84.8719C102.686 83.6119 104.166 82.3519 106.106 81.8719C106.106 81.8719 106.796 83.0719 106.776 85.0019Z" fill="#BFC4D8"/>
<path d="M103.679 84.852C103.972 84.852 104.21 84.6143 104.21 84.321C104.21 84.0278 103.972 83.79 103.679 83.79C103.386 83.79 103.148 84.0278 103.148 84.321C103.148 84.6143 103.386 84.852 103.679 84.852Z" fill="#B99AC8"/>
<path d="M102.692 47.071C102.692 47.071 103.973 40.623 96.0721 41.418C96.0721 41.418 94.6591 58.992 92.5951 60.056C90.5311 61.12 76.5801 62.141 76.5801 62.141V65.211C78.7771 66.263 92.4281 66.435 94.4661 66.286C95.2251 66.149 96.1351 65.949 96.9431 65.362C98.3021 64.374 99.9011 62.336 100.864 58.132L102.692 47.071Z" fill="#C6A7D8"/>
<path d="M74.292 66.054L72.978 65.813C71.67 65.573 70.796 64.306 71.036 62.998C71.276 61.69 72.543 60.816 73.851 61.056L75.165 61.297C76.473 61.537 77.347 62.804 77.107 64.112C76.867 65.42 75.6 66.294 74.292 66.054Z" fill="#7E539B"/>
<path d="M105.221 105.044C105.221 105.044 104.946 99.9691 99.3899 101.817C99.3899 101.817 94.2429 98.163 92.0379 103.498C92.0379 103.498 88.7789 103.413 87.8889 106.539H108C108 106.539 107.276 104.922 105.221 105.044Z" fill="#EEEEF7"/>
</g>
<defs>
<clipPath id="clip0_40_940">
<rect width="128" height="128" fill="white"/>
</clipPath>
</defs>
</svg>
